<svg xmlns="http://www.w3.org/2000/svg" width="64" height="64" fill="none"><g clip-path="url(#a)"><path fill="url(#b)" d="M64 0H0v64h64V0Z"/><path fill="#fff" d="M46.406 33.805v-3.34c-6.762 0-12.61 3.898-15.327 9.518h3.89a13.61 13.61 0 0 1 11.441-6.178h-.004Z"/><path fill="#fff" d="M40.314 24.973c-3.95 1.16-6.221 2.697-7.983 4.21a35.552 35.552 0 0 0-2.105 1.852c-1.92 1.806-3.736 3.51-8.105 4.787-2.06.6-3.692.818-5.121.834v3.327c1.699-.016 3.672-.264 6.092-.972 3.95-1.159 6.222-2.697 7.983-4.209v.016c.782-.629 1.458-1.261 2.105-1.869 1.921-1.805 3.736-3.509 8.105-4.786 2.06-.601 3.692-.818 5.121-.834v-3.328c-1.699.016-3.672.265-6.092.972Z"/><path fill="#fff" d="M17.004 30.178v3.34c6.762 0 12.61-3.898 15.327-9.518h-3.89A13.61 13.61 0 0 1 17 30.178h.004Z"/></g><defs><linearGradient id="b" x1="40" x2="9.659" y1="24.415" y2="64" gradientUnits="userSpaceOnUse"><stop/><stop offset=".708" stop-color="#04C"/><stop offset="1" stop-color="#05F"/></linearGradient><clipPath id="a"><path fill="#fff" d="M0 0h64v64H0z"/></clipPath></defs></svg>